# xmcd
#
# Track frame offsets: 
#        150
#        13469
#        31330
#        43090
#        61968
#        82879
#        93419
#        110527
#
# Disc length: 1684 seconds
#
# Revision: 0
# Processed by: cddbd v1.5.2PL0 Copyright (c) Steve Scherf et al.
# Submitted via: ExactAudioCopy v0.99pb5
#
DISCID=61069208
DTITLE=T.R.U.T.H - Eve EP
DYEAR=2015
DGENRE=Hip-Hop
TTITLE0=Every Virgin Evolves
TTITLE1=Fuck Is You Sayin
TTITLE2=Pilot
TTITLE3=So Good
TTITLE4=Aphrodisiac
TTITLE5=Gya
TTITLE6=My Best
TTITLE7=Our Land (ft. Nikky Finney)
EXTD=
EXTT0=
EXTT1=
EXTT2=
EXTT3=
EXTT4=
EXTT5=
EXTT6=
EXTT7=
PLAYORDER=
